<svg xmlns="http://www.w3.org/2000/svg" version="1.1" xmlns:xlink="http://www.w3.org/1999/xlink" xmlns:svgjs="http://svgjs.dev/svgjs" width="2000" height="1500" viewBox="0 0 2000 1500"><rect width="2000" height="1500" fill="#ffffff"></rect><g transform="matrix(0.4444444444444444,0,0,0.4444444444444444,555.5555555555557,250)"><svg viewBox="0 0 320 360" data-background-color="#ffffff" preserveAspectRatio="xMidYMid meet" height="2250" width="2000" xmlns="http://www.w3.org/2000/svg" xmlns:xlink="http://www.w3.org/1999/xlink"><g id="tight-bounds" transform="matrix(1,0,0,1,0,0)"><svg viewBox="0 0 320 360" height="360" width="320"><g><svg></svg></g><g><svg viewBox="0 0 320 360" height="360" width="320"><g><path xmlns="http://www.w3.org/2000/svg" d="M20.961 227.22l3.726 4.658-1.863-6.056c-0.466-2.795-3.726 0.466-1.863 1.398M25.153 224.425c1.397 2.329 2.795 4.658 2.795 6.987 0 3.261 2.795 4.658 5.123 5.589-3.261-3.726-5.124-13.974-7.918-12.576M204.017 26.929c7.918 0 15.371-0.932 23.756 0.931 20.495 5.124 37.729 15.371 49.374 29.811l32.606 52.169c1.397 13.042 4.192 27.482 3.726 43.319 3.261 0 2.795-4.658 6.521-5.59-3.726 9.316-5.59 20.961-6.521 34.469-2.329-7.453 0-18.632 0.466-24.687-3.261 5.124-5.124 1.397-5.124-0.932 0.466-3.726-1.397-3.261-2.795-4.658-5.124-4.658-8.384-9.782-12.11-17.7 2.329-6.055 2.795-14.905-4.658-19.563-2.329-1.397-5.124-3.726-6.521-7.453-1.863-5.124-5.124-11.179-4.193-19.097 0.466-2.329-6.987 5.124-11.179 1.863-18.166-12.576-36.332-27.016-58.224-39.127-11.645 0-20.029-4.192-24.221-9.316-3.726-4.658-0.932-10.713 4.658-11.179 3.261 0 6.987-0.932 9.782 0.932 0.466-1.863 2.329-4.192 4.657-4.192M157.904 16.215l0.932 0.466c4.658 0.932 6.987 7.453 12.11 5.124 0 3.261 0.466 6.521-0.466 8.85-1.397 3.726-5.59 3.726-8.85 3.726-31.208-1.863-49.374 11.179-68.471 22.358-5.124 3.261-10.713 5.59-14.906 9.782-20.029 18.632-41.921 35.866-47.045 70.335l-4.192 38.195c-0.466 4.192-5.124 8.384-4.192 13.508l3.26 22.824c-3.261-3.261-5.124 0.932-4.192 2.795 0.466 1.397 2.329 6.055 5.124 1.863 3.726 6.987 7.453 20.495 12.576 26.55 15.837 18.632 36.332 35.4 53.101 52.169 4.192-0.932 7.453-0.932 8.384-3.727 1.397 2.795-1.397 5.59-3.726 6.056 7.453 4.658 15.837 8.85 27.016 9.781 14.44 0.932 27.948 3.261 40.524 6.522 6.521-1.863 13.042-2.795 20.029-3.261 2.329 0 3.726-3.726 6.521-4.658l0.466-4.658c2.795 4.192 2.329-1.397 0.466-4.192 3.261 2.795 4.192 5.124 5.589 6.987 0-1.397 3.726-6.521 3.727-0.466l0.931-6.055c1.397-0.932 1.863 5.124 3.261 0.931 1.397-4.192 4.192-0.932 6.987-2.329-0.932 1.863-0.466 5.59 2.794 3.261l3.727-3.261c2.329 5.59 6.055 3.261 7.918 2.329 20.495-13.042 40.99-28.413 60.553-43.784l-0.466 6.055 2.329-7.453c2.329 2.329 4.192 0.466 5.124-0.931 2.795-4.658 6.521-9.316 12.577-13.508-7.453 20.029-16.303 35.866-27.482 48.908l-4.658 5.59c0 3.261-0.932 7.453-4.658 7.918-1.863 0.466-5.59-0.932-8.384 1.863-1.397 1.863 3.261 5.59-0.466 2.795-3.261-2.329-6.521 0-10.248 0.932-2.795 0.932 1.863 3.726 2.795 5.589 0.932 1.863 1.863 3.726 1.398 6.056l-5.124-5.59c-6.055 3.261-9.782 9.316-14.906 13.974-2.329 1.863-1.397 5.124-1.397 7.918-3.261 0-6.987-0.932-8.85 0.932-1.397 1.863-0.932 4.658-0.932 7.453-4.658-0.466-5.124-7.453-9.315-6.056-4.192 0.932-8.85 1.397-12.577 3.727 2.795 5.59-4.658 2.329-3.726 3.26-6.987-4.192-13.042-7.453-20.495-4.658-15.837-5.124-35.4-2.795-49.84-0.931 0-2.329 0.466-4.658-0.466-5.124-0.932 2.329-3.726 1.397-3.26 1.397-8.85-6.055-17.7-9.782-27.016-14.905-8.384 0.932-16.303-3.261-18.632-5.59-6.521-6.055-13.974-2.795-20.029-4.192-13.042-3.261-17.7-16.769-19.098-26.084-0.932-4.658-4.658-6.521-6.055-6.056-6.055-19.563-15.371-37.263-22.824-55.429-1.863-4.658-1.397-9.316-1.397-14.44 2.329 0.932 4.658 0.466 4.192-2.794-2.329-15.371-7.918-27.016-13.974-38.195 3.261-15.837 3.726-34.469 11.179-48.443 6.521-12.576 18.632-19.098 27.016-29.811 2.795-3.726 2.795-8.85 5.59-12.11 9.316-9.316 18.632-19.098 28.879-27.482 4.658-3.726 10.247 0 17.234-1.397 2.329-8.384 11.645-15.837 20.495-13.508 3.726 0.932 11.179-8.85 13.508-9.782 3.726-1.397 1.863 3.726 1.863 6.987 8.85-6.987 20.961-10.713 32.14-14.906" fill="#f47314" fill-rule="nonzero" stroke="none" stroke-width="1" stroke-linecap="butt" stroke-linejoin="miter" stroke-miterlimit="10" stroke-dasharray="" stroke-dashoffset="0" font-family="none" font-weight="none" font-size="none" text-anchor="none" style="mix-blend-mode: normal" data-fill-palette-color="tertiary"></path></g><g transform="matrix(1,0,0,1,64,112.82357376683274)"><svg viewBox="0 0 192 134.35285246633453" height="134.35285246633453" width="192"><g><svg viewBox="0 0 192 134.35285246633453" height="134.35285246633453" width="192"><g><svg viewBox="0 0 192 134.35285246633453" height="134.35285246633453" width="192"><g transform="matrix(1,0,0,1,0,79.97340299196651)"><svg viewBox="0 0 192 54.379449474368" height="54.379449474368" width="192"><g id="textblocktransform"><svg viewBox="0 0 192 54.379449474368" height="54.379449474368" width="192" id="textblock"><g><svg viewBox="0 0 192 33.03777184280809" height="33.03777184280809" width="192"><g transform="matrix(1,0,0,1,0,0)"><svg width="192" viewBox="-0.5 -34.79999923706055 262.0799865722656 45.099998474121094" height="33.03777184280809" data-palette-color="#ff851b"><path d="M19.5 0L9.1 0-0.5-32.5 8.6-32.5 12-18.3Q12.7-15.7 13.2-13.18 13.7-10.65 14.4-8L14.4-8 14.6-8Q15.3-10.65 15.83-13.18 16.35-15.7 17-18.3L17-18.3 20.3-32.5 29.1-32.5 19.5 0ZM42.1 0.6L42.1 0.6Q39.35 0.6 37-0.28 34.65-1.15 32.92-2.83 31.2-4.5 30.2-6.95 29.2-9.4 29.2-12.5L29.2-12.5Q29.2-15.55 30.22-17.98 31.25-20.4 32.92-22.1 34.6-23.8 36.75-24.7 38.9-25.6 41.2-25.6L41.2-25.6Q43.95-25.6 46-24.65 48.05-23.7 49.4-22.05 50.75-20.4 51.42-18.2 52.1-16 52.1-13.5L52.1-13.5Q52.1-12.35 51.97-11.35 51.85-10.35 51.75-9.9L51.75-9.9 37.5-9.9Q38.1-7.65 39.65-6.78 41.2-5.9 43.3-5.9L43.3-5.9Q44.6-5.9 45.82-6.28 47.05-6.65 48.4-7.4L48.4-7.4 51.2-2.3Q49.15-0.85 46.67-0.13 44.2 0.6 42.1 0.6ZM37.4-15.5L37.4-15.5 44.8-15.5Q44.8-16.95 44.07-18.03 43.35-19.1 41.4-19.1L41.4-19.1Q39.95-19.1 38.87-18.25 37.8-17.4 37.4-15.5ZM65.4 0L56.8 0 56.8-25 63.8-25 64.4-20.7 64.59-20.7Q66-23.25 67.92-24.43 69.84-25.6 71.7-25.6L71.7-25.6Q72.84-25.6 73.55-25.48 74.25-25.35 74.8-25.1L74.8-25.1 73.4-17.7Q72.7-17.85 72.07-17.98 71.45-18.1 70.59-18.1L70.59-18.1Q69.25-18.1 67.77-17.18 66.3-16.25 65.4-13.9L65.4-13.9 65.4 0ZM91.59 0.6L91.59 0.6Q89.94 0.6 88.34-0.23 86.74-1.05 85.29-2.7L85.29-2.7 85.09-2.7 84.39 0 77.69 0 77.69-34.8 86.29-34.8 86.29-26.7 86.09-23.1Q87.39-24.3 88.99-24.95 90.59-25.6 92.24-25.6L92.24-25.6Q94.44-25.6 96.24-24.7 98.04-23.8 99.32-22.15 100.59-20.5 101.29-18.15 101.99-15.8 101.99-12.95L101.99-12.95Q101.99-9.7 101.12-7.18 100.24-4.65 98.79-2.93 97.34-1.2 95.47-0.3 93.59 0.6 91.59 0.6ZM89.49-6.4L89.49-6.4Q90.99-6.4 92.09-7.8 93.19-9.2 93.19-12.8L93.19-12.8Q93.19-15.9 92.32-17.25 91.44-18.6 89.69-18.6L89.69-18.6Q88.69-18.6 87.92-18.2 87.14-17.8 86.29-16.8L86.29-16.8 86.29-7.6Q87.04-6.9 87.84-6.65 88.64-6.4 89.49-6.4ZM122.29 0L111.89 0 102.29-32.5 111.39-32.5 114.79-18.3Q115.49-15.7 115.99-13.18 116.49-10.65 117.19-8L117.19-8 117.39-8Q118.09-10.65 118.62-13.18 119.14-15.7 119.79-18.3L119.79-18.3 123.09-32.5 131.89-32.5 122.29 0ZM144.39 0.6L144.39 0.6Q141.99 0.6 139.74-0.28 137.49-1.15 135.76-2.83 134.04-4.5 133.01-6.95 131.99-9.4 131.99-12.5L131.99-12.5Q131.99-15.6 133.01-18.05 134.04-20.5 135.76-22.18 137.49-23.85 139.74-24.73 141.99-25.6 144.39-25.6L144.39-25.6Q146.79-25.6 149.01-24.73 151.24-23.85 152.96-22.18 154.69-20.5 155.74-18.05 156.79-15.6 156.79-12.5L156.79-12.5Q156.79-9.4 155.74-6.95 154.69-4.5 152.96-2.83 151.24-1.15 149.01-0.28 146.79 0.6 144.39 0.6ZM144.39-6.3L144.39-6.3Q146.34-6.3 147.16-7.98 147.99-9.65 147.99-12.5L147.99-12.5Q147.99-15.35 147.16-17.03 146.34-18.7 144.39-18.7L144.39-18.7Q142.44-18.7 141.61-17.03 140.79-15.35 140.79-12.5L140.79-12.5Q140.79-9.65 141.61-7.98 142.44-6.3 144.39-6.3ZM164.49 9.4L164.49 9.4Q163.19 9.4 162.36 9.28 161.54 9.15 160.69 8.9L160.69 8.9 162.19 2.4Q162.54 2.5 162.96 2.6 163.39 2.7 163.79 2.7L163.79 2.7Q165.54 2.7 166.41 2.02 167.29 1.35 167.69 0.2L167.69 0.2 167.99-0.9 158.49-25 167.09-25 170.09-15.4Q170.64-13.65 171.04-11.93 171.44-10.2 171.89-8.3L171.89-8.3 172.09-8.3Q172.49-10.1 172.86-11.85 173.24-13.6 173.69-15.4L173.69-15.4 176.19-25 184.39-25 175.99-0.4Q174.99 2.15 173.96 4 172.94 5.85 171.59 7.05 170.24 8.25 168.51 8.83 166.79 9.4 164.49 9.4ZM193.38 0.6L193.38 0.6Q191.63 0.6 190.23-0.03 188.83-0.65 187.86-1.7 186.88-2.75 186.38-4.15 185.88-5.55 185.88-7.1L185.88-7.1Q185.88-11 189.08-13.23 192.28-15.45 199.48-16.2L199.48-16.2Q199.18-18.8 195.98-18.8L195.98-18.8Q194.63-18.8 193.13-18.28 191.63-17.75 189.68-16.7L189.68-16.7 186.68-22.3Q189.33-23.9 192.03-24.75 194.73-25.6 197.68-25.6L197.68-25.6Q202.53-25.6 205.31-22.83 208.08-20.05 208.08-13.9L208.08-13.9 208.08 0 201.08 0 200.48-2.4 200.28-2.4Q198.78-1.05 197.11-0.23 195.43 0.6 193.38 0.6ZM196.38-6L196.38-6Q197.43-6 198.11-6.48 198.78-6.95 199.48-7.7L199.48-7.7 199.48-11.1Q196.38-10.65 195.23-9.75 194.08-8.85 194.08-7.8L194.08-7.8Q194.08-6 196.38-6ZM222.78 10.3L222.78 10.3Q220.63 10.3 218.73 9.98 216.83 9.65 215.41 8.9 213.98 8.15 213.13 6.98 212.28 5.8 212.28 4.1L212.28 4.1Q212.28 1.15 215.78-0.7L215.78-0.7 215.78-0.9Q214.78-1.6 214.13-2.6 213.48-3.6 213.48-5.2L213.48-5.2Q213.48-6.5 214.23-7.75 214.98-9 216.28-9.9L216.28-9.9 216.28-10.1Q214.93-11 213.91-12.65 212.88-14.3 212.88-16.5L212.88-16.5Q212.88-18.8 213.78-20.53 214.68-22.25 216.18-23.38 217.68-24.5 219.61-25.05 221.53-25.6 223.58-25.6L223.58-25.6Q225.78-25.6 227.58-25L227.58-25 236.88-25 236.88-18.8 233.28-18.8Q233.43-18.35 233.56-17.65 233.68-16.95 233.68-16.2L233.68-16.2Q233.68-14 232.88-12.43 232.08-10.85 230.73-9.85 229.38-8.85 227.53-8.38 225.68-7.9 223.58-7.9L223.58-7.9Q222.33-7.9 220.78-8.25L220.78-8.25Q220.38-7.9 220.28-7.63 220.18-7.35 220.18-6.8L220.18-6.8Q220.18-5.95 220.98-5.63 221.78-5.3 223.68-5.3L223.68-5.3 227.43-5.3Q232.13-5.3 234.71-3.78 237.28-2.25 237.28 1.2L237.28 1.2Q237.28 3.25 236.26 4.93 235.23 6.6 233.36 7.8 231.48 9 228.81 9.65 226.13 10.3 222.78 10.3ZM223.58-13L223.58-13Q224.78-13 225.53-13.85 226.28-14.7 226.28-16.5L226.28-16.5Q226.28-18.25 225.53-19.07 224.78-19.9 223.58-19.9L223.58-19.9Q222.38-19.9 221.63-19.07 220.88-18.25 220.88-16.5L220.88-16.5Q220.88-14.7 221.63-13.85 222.38-13 223.58-13ZM224.18 5L224.18 5Q226.28 5 227.68 4.38 229.08 3.75 229.08 2.7L229.08 2.7Q229.08 1.7 228.21 1.45 227.33 1.2 225.73 1.2L225.73 1.2 223.78 1.2Q222.28 1.2 221.51 1.13 220.73 1.05 220.18 0.9L220.18 0.9Q219.73 1.35 219.51 1.75 219.28 2.15 219.28 2.7L219.28 2.7Q219.28 3.9 220.63 4.45 221.98 5 224.18 5ZM251.58 0.6L251.58 0.6Q248.83 0.6 246.48-0.28 244.13-1.15 242.4-2.83 240.68-4.5 239.68-6.95 238.68-9.4 238.68-12.5L238.68-12.5Q238.68-15.55 239.7-17.98 240.73-20.4 242.4-22.1 244.08-23.8 246.23-24.7 248.38-25.6 250.68-25.6L250.68-25.6Q253.43-25.6 255.48-24.65 257.53-23.7 258.88-22.05 260.23-20.4 260.9-18.2 261.58-16 261.58-13.5L261.58-13.5Q261.58-12.35 261.45-11.35 261.33-10.35 261.23-9.9L261.23-9.9 246.98-9.9Q247.58-7.65 249.13-6.78 250.68-5.9 252.78-5.9L252.78-5.9Q254.08-5.9 255.3-6.28 256.53-6.65 257.88-7.4L257.88-7.4 260.68-2.3Q258.63-0.85 256.15-0.13 253.68 0.6 251.58 0.6ZM246.88-15.5L246.88-15.5 254.28-15.5Q254.28-16.95 253.55-18.03 252.83-19.1 250.88-19.1L250.88-19.1Q249.43-19.1 248.35-18.25 247.28-17.4 246.88-15.5Z" opacity="1" transform="matrix(1,0,0,1,0,0)" fill="#ff851b" class="wordmark-text-0" data-fill-palette-color="primary" id="text-0"></path></svg></g></svg></g><g transform="matrix(1,0,0,1,0,37.85877566119802)"><svg viewBox="0 0 192 16.520673813169985" height="16.520673813169985" width="192"><g transform="matrix(1,0,0,1,0,0)"><svg width="192" viewBox="0.9000000357627869 -35.5 522.3999633789062 44.95000076293945" height="16.520673813169985" data-palette-color="#ff4136"><path d="M2.35-8.6L5.8-8.6 5.8-26.4 2.25-26.4Q1.4-26.4 1.05-28.55L1.05-28.55Q0.9-29.6 0.9-30.7 0.9-31.8 1.05-32.85L1.05-32.85Q1.4-35 2.25-35L2.25-35 19.05-35Q19.9-35 20.2-32.85L20.2-32.85Q20.4-31.8 20.4-30.7 20.4-29.6 20.2-28.55L20.2-28.55Q19.9-26.4 19.05-26.4L19.05-26.4 15.7-26.4 15.7-8.6 19.2-8.6Q20.05-8.6 20.4-6.45L20.4-6.45Q20.6-5.4 20.6-4.3 20.6-3.2 20.4-2.15L20.4-2.15Q20.05 0 19.2 0L19.2 0 2.35 0Q1.5 0 1.2-2.15L1.2-2.15Q1-3.2 1-4.3 1-5.4 1.2-6.45L1.2-6.45Q1.5-8.6 2.35-8.6L2.35-8.6ZM34.15-16.35L34.15-0.3Q34.15 0.05 30.55 0.05L30.55 0.05Q25.55-0.1 25.55-0.5L25.55-0.5 25.55-16.7 24.25-16.7Q22.95-16.7 22.55-18.9L22.55-18.9Q22.45-19.55 22.45-20.2L22.45-20.2Q22.45-21.75 23.05-23.3L23.05-23.3Q23.95-25.5 25.85-25.5 27.75-25.5 29.25-24.6 30.75-23.7 31.25-22.8L31.25-22.8Q34.4-25.5 38.75-25.5 43.1-25.5 45.05-23.15 47-20.8 47-15.45L47-15.45 47-0.45Q47 0.15 42.73 0.15 38.45 0.15 38.45-0.45L38.45-0.45 38.45-14.9Q38.45-17.4 36.7-17.4L36.7-17.4Q36.2-17.4 35.3-16.98 34.4-16.55 34.15-16.35L34.15-16.35ZM52.3-9L52.3-9Q56.35-6.55 58.7-6.55L58.7-6.55Q60.2-6.55 60.2-7.6L60.2-7.6Q60.2-8.35 57.6-9.55L57.6-9.55Q51.35-12.1 51.35-17.9L51.35-17.9Q51.35-21.6 54.05-23.55 56.75-25.5 60.53-25.5 64.3-25.5 66.93-24.7 69.55-23.9 69.55-22.6L69.55-22.6Q69.55-21.5 68.48-19.7 67.4-17.9 67-17.75L67-17.75Q64.85-18.95 62.35-18.95L62.35-18.95Q61-18.95 61-18L61-18Q61-17.4 61.53-16.98 62.05-16.55 63.45-15.93 64.85-15.3 65.78-14.8 66.7-14.3 67.85-13.4L67.85-13.4Q70.25-11.5 70.25-8.45L70.25-8.45Q70.25-4.45 67.6-1.98 64.95 0.5 59.6 0.5L59.6 0.5Q56.05 0.5 53.15-0.7 50.25-1.9 50.25-4L50.25-4Q50.25-5.4 50.93-6.95 51.6-8.5 52.3-9ZM84.5 0L84.5 9.1Q84.5 9.45 80.23 9.45 75.95 9.45 75.95 9.1L75.95 9.1 75.95-16.65 74.25-16.65Q73.05-16.65 72.6-18.85L72.6-18.85Q72.45-19.55 72.45-20.65 72.45-21.75 73.15-23.25L73.15-23.25Q74.15-25.45 76.35-25.45L76.35-25.45Q77.8-25.45 79.03-24.78 80.25-24.1 80.73-23.53 81.2-22.95 81.2-22.85L81.2-22.85Q84.55-25.45 88.45-25.45 92.35-25.45 95.15-22.43 97.95-19.4 97.95-13.08 97.95-6.75 95.15-3.28 92.35 0.2 88.05 0.2L88.05 0.2Q86.1 0.2 84.5 0L84.5 0ZM86.55-16.7L86.55-16.7Q85.7-16.7 84.9-16.15L84.9-16.15 84.9-7.3Q85.75-7.2 86.28-7.2 86.8-7.2 87.1-7.2L87.1-7.2Q89.15-7.4 89.15-12.45L89.15-12.45Q89.15-16.7 86.55-16.7ZM110.65-24.85L110.65-0.3Q110.65 0.1 106.08 0.1 101.5 0.1 101.5-0.25L101.5-0.25 101.5-24.8Q101.5-25.15 106.08-25.15 110.65-25.15 110.65-24.85L110.65-24.85ZM110.65-35.15L110.65-27.8Q110.65-27.45 106.08-27.45 101.5-27.45 101.5-27.75L101.5-27.75 101.5-34.95Q101.5-35.45 106.08-35.45 110.65-35.45 110.65-35.15L110.65-35.15ZM126.1-14L126.1-0.05Q126.1 0.3 121.55 0.3L121.55 0.3Q117 0.2 117-0.1L117-0.1 117-16.7 115.65-16.7Q114.85-16.7 114.38-17.68 113.9-18.65 113.9-20.1L113.9-20.1Q113.9-25.5 117.1-25.5L117.1-25.5Q119.35-25.5 120.85-24.13 122.35-22.75 122.35-21L122.35-21Q123.4-23.05 125.18-24.28 126.95-25.5 128.8-25.5L128.8-25.5Q131.7-25.5 132.3-24L132.3-24Q132.45-23.6 132.45-22.83 132.45-22.05 131.98-20.05 131.5-18.05 131-17.15 130.5-16.25 130.4-16.25 130.3-16.25 129.48-16.63 128.65-17 128-17L128-17Q126.1-17 126.1-14L126.1-14ZM153.85-1.35L153.85-1.35Q150.7 0.5 145.75 0.5 140.8 0.5 137.4-2.88 134-6.25 134-12.23 134-18.2 137.28-21.85 140.55-25.5 145.55-25.5 150.55-25.5 153.28-22.95 156-20.4 156-16.75L156-16.75Q156-8.65 146.7-8.65L146.7-8.65 143.25-8.65Q143.25-7.15 144.08-6.58 144.9-6 146.5-6L146.5-6Q150-6 153.15-7.6L153.15-7.6Q153.2-7.65 153.6-6.9L153.6-6.9Q154.8-4.75 154.8-3.28 154.8-1.8 153.85-1.35ZM147.6-15.8L147.6-15.8Q147.6-17.9 145.55-17.9L145.55-17.9Q144.6-17.9 143.93-17.32 143.25-16.75 143.25-15.65L143.25-15.65 143.25-14.1 145.95-14.1Q147.6-14.1 147.6-15.8ZM162.8-2.85L163-7.4Q163.3-8.2 167.25-8.2 171.2-8.2 171.2-7.15L171.2-7.15 171.1-2.9 168.2 3.9Q167.55 5.35 164.18 5.35 160.8 5.35 159.9 4.25L159.9 4.25Q159.7 4 159.7 3.78 159.7 3.55 159.75 3.35L159.75 3.35 162.8-2.85ZM185.45-12.2L185.45-12.2Q186.4-11.45 188.73-10.15 191.05-8.85 193.18-8.85 195.3-8.85 195.3-10.5L195.3-10.5Q195.3-11.25 194.7-11.83 194.1-12.4 192.5-13.15 190.9-13.9 190.1-14.33 189.3-14.75 187.98-15.73 186.65-16.7 185.95-17.75L185.95-17.75Q183.95-20.6 183.95-25 183.95-29.4 187.23-32.43 190.5-35.45 195.8-35.45L195.8-35.45Q199.4-35.45 202.45-34.68 205.5-33.9 205.6-32.65L205.6-32.65Q205.6-32.5 205.6-32.35L205.6-32.35Q205.6-30.6 204.5-27.93 203.4-25.25 202.95-24.95L202.95-24.95Q199.75-26.6 197.23-26.6 194.7-26.6 194.7-24.8L194.7-24.8Q194.7-23.7 196.55-22.85L196.55-22.85Q196.95-22.65 197.7-22.3 198.45-21.95 199.43-21.48 200.4-21 201.53-20.28 202.65-19.55 203.95-18.35L203.95-18.35Q206.6-15.85 206.6-11.75L206.6-11.75Q206.6-6.4 203.65-3 200.7 0.4 194.55 0.5L194.55 0.5Q191.55 0.5 189.13 0 186.7-0.5 184.9-1.95 183.1-3.4 183.1-5.45 183.1-7.5 183.85-9.53 184.6-11.55 185.45-12.2ZM218.8-16.55L218.8-0.35Q218.8 0.1 214.63 0.1 210.45 0.1 210.45-0.6L210.45-0.6 210.45-34.85Q210.45-35.2 212-35.35 213.55-35.5 214.6-35.5L214.6-35.5Q218.8-35.5 218.8-34.6L218.8-34.6 218.8-24.6Q221.6-25.45 223.05-25.45L223.05-25.45Q226.85-25.45 229.05-23.43 231.25-21.4 231.25-15.9L231.25-15.9 231.25-0.4Q231.25 0.05 227.35 0.05L227.35 0.05Q222.95-0.1 222.95-0.45L222.95-0.45 222.95-15.15Q222.95-17.6 221.35-17.6L221.35-17.6Q220.25-17.6 218.8-16.55L218.8-16.55ZM238.65-18.15L238.65-18.15Q237.25-20.65 237.25-22.23 237.25-23.8 238.1-24.25L238.1-24.25Q240.95-25.5 245.93-25.5 250.9-25.5 252.95-23.18 255-20.85 255-16.3L255-16.3 255-8.4 256.7-8.4Q257.55-8.4 258.03-7.4 258.5-6.4 258.5-4.65 258.5-2.9 257.63-1.2 256.75 0.5 255.25 0.5L255.25 0.5Q252.55 0.5 250.9-0.95L250.9-0.95Q250.15-1.55 249.75-2.4L249.75-2.4Q247.45 0.5 242.6 0.5L242.6 0.5Q238.95 0.5 236.45-2.1 233.95-4.7 233.95-8.25L233.95-8.25Q233.95-16.4 243.7-16.4L243.7-16.4 246.45-16.4 246.45-16.9Q246.45-18.2 246.03-18.57 245.6-18.95 244.05-18.95L244.05-18.95Q242.15-18.95 238.65-18.15ZM242.65-8.95L242.65-8.95Q242.65-7.85 243.25-7.28 243.85-6.7 244.78-6.7 245.7-6.7 246.45-7.45L246.45-7.45 246.45-11.3 245.05-11.3Q242.65-11.3 242.65-8.95ZM272.3-14L272.3-0.05Q272.3 0.3 267.75 0.3L267.75 0.3Q263.2 0.2 263.2-0.1L263.2-0.1 263.2-16.7 261.85-16.7Q261.05-16.7 260.58-17.68 260.1-18.65 260.1-20.1L260.1-20.1Q260.1-25.5 263.3-25.5L263.3-25.5Q265.55-25.5 267.05-24.13 268.55-22.75 268.55-21L268.55-21Q269.6-23.05 271.38-24.28 273.15-25.5 275-25.5L275-25.5Q277.9-25.5 278.5-24L278.5-24Q278.65-23.6 278.65-22.83 278.65-22.05 278.18-20.05 277.7-18.05 277.2-17.15 276.7-16.25 276.6-16.25 276.5-16.25 275.68-16.63 274.85-17 274.2-17L274.2-17Q272.3-17 272.3-14L272.3-14ZM300.05-1.35L300.05-1.35Q296.9 0.5 291.95 0.5 287 0.5 283.6-2.88 280.2-6.25 280.2-12.23 280.2-18.2 283.48-21.85 286.75-25.5 291.75-25.5 296.75-25.5 299.48-22.95 302.2-20.4 302.2-16.75L302.2-16.75Q302.2-8.65 292.9-8.65L292.9-8.65 289.45-8.65Q289.45-7.15 290.28-6.58 291.1-6 292.7-6L292.7-6Q296.2-6 299.35-7.6L299.35-7.6Q299.4-7.65 299.8-6.9L299.8-6.9Q301-4.75 301-3.28 301-1.8 300.05-1.35ZM293.8-15.8L293.8-15.8Q293.8-17.9 291.75-17.9L291.75-17.9Q290.8-17.9 290.13-17.32 289.45-16.75 289.45-15.65L289.45-15.65 289.45-14.1 292.15-14.1Q293.8-14.1 293.8-15.8ZM309-2.85L309.2-7.4Q309.5-8.2 313.45-8.2 317.4-8.2 317.4-7.15L317.4-7.15 317.3-2.9 314.4 3.9Q313.75 5.35 310.38 5.35 307 5.35 306.1 4.25L306.1 4.25Q305.9 4 305.9 3.78 305.9 3.55 305.95 3.35L305.95 3.35 309-2.85ZM330.35-2.3L330.35-2.3 330.35-32.3Q330.35-33.55 330.98-34.27 331.6-35 332.6-35L332.6-35 340.95-35Q348.9-35 353.03-31 357.15-27 357.15-18.4L357.15-18.4Q357.15 0 341.45 0L341.45 0 332.9 0Q330.35 0 330.35-2.3ZM340.45-25.5L339.95-25.5 339.95-10.55Q339.95-9.5 340.1-9.22 340.25-8.95 341-8.95L341-8.95Q343.75-8.95 345.18-11 346.6-13.05 346.6-17.82 346.6-22.6 345.13-24.05 343.65-25.5 340.45-25.5L340.45-25.5ZM370.05-24.85L370.05-0.3Q370.05 0.1 365.48 0.1 360.9 0.1 360.9-0.25L360.9-0.25 360.9-24.8Q360.9-25.15 365.48-25.15 370.05-25.15 370.05-24.85L370.05-24.85ZM370.05-35.15L370.05-27.8Q370.05-27.45 365.48-27.45 360.9-27.45 360.9-27.75L360.9-27.75 360.9-34.95Q360.9-35.45 365.48-35.45 370.05-35.45 370.05-35.15L370.05-35.15ZM375.6-9L375.6-9Q379.65-6.55 382-6.55L382-6.55Q383.5-6.55 383.5-7.6L383.5-7.6Q383.5-8.35 380.9-9.55L380.9-9.55Q374.65-12.1 374.65-17.9L374.65-17.9Q374.65-21.6 377.35-23.55 380.05-25.5 383.83-25.5 387.6-25.5 390.23-24.7 392.85-23.9 392.85-22.6L392.85-22.6Q392.85-21.5 391.78-19.7 390.7-17.9 390.3-17.75L390.3-17.75Q388.15-18.95 385.65-18.95L385.65-18.95Q384.3-18.95 384.3-18L384.3-18Q384.3-17.4 384.83-16.98 385.35-16.55 386.75-15.93 388.15-15.3 389.08-14.8 390-14.3 391.15-13.4L391.15-13.4Q393.55-11.5 393.55-8.45L393.55-8.45Q393.55-4.45 390.9-1.98 388.25 0.5 382.9 0.5L382.9 0.5Q379.35 0.5 376.45-0.7 373.55-1.9 373.55-4L373.55-4Q373.55-5.4 374.23-6.95 374.9-8.5 375.6-9ZM405.25-12.4L405.25-12.4Q405.25-7.5 408.95-7.5L408.95-7.5Q411.35-7.5 412.95-8.45L412.95-8.45Q413.7-8.45 414.18-5.88 414.65-3.3 414.65-2.38 414.65-1.45 414.4-1.15L414.4-1.15Q411.75 0.5 407.15 0.5 402.55 0.5 399.33-2.93 396.1-6.35 396.1-12.28 396.1-18.2 399.28-21.85 402.45-25.5 407.73-25.5 413-25.5 415.05-22.95L415.05-22.95Q415.5-22.4 415.5-21.33 415.5-20.25 415.1-18.7L415.1-18.7Q414.2-15.5 412.75-15L412.75-15Q412.55-14.95 412.18-14.95 411.8-14.95 411.25-15.55L411.25-15.55Q409.3-17.5 408.13-17.5 406.95-17.5 406.1-16.3 405.25-15.1 405.25-12.4ZM420.43-2.95Q417.3-6.4 417.3-12.5 417.3-18.6 420.43-22.05 423.55-25.5 428.85-25.5 434.15-25.5 437.25-22.05 440.35-18.6 440.35-12.5 440.35-6.4 437.25-2.95 434.15 0.5 428.85 0.5 423.55 0.5 420.43-2.95ZM428.88-17.15Q426.05-17.15 426.05-12.55 426.05-7.95 428.88-7.95 431.7-7.95 431.7-12.55 431.7-17.15 428.88-17.15ZM448.4-0.6L441.95-24.85Q441.8-25.25 446.63-25.25 451.45-25.25 451.45-25L451.45-25 455.05-8 457.75-24.75Q457.9-25.2 462.7-25.2L462.7-25.2Q467.55-25.2 467.4-24.8L467.4-24.8 460.35-0.35Q460 0.15 454.4 0.15 448.8 0.15 448.4-0.6L448.4-0.6ZM488.85-1.35L488.85-1.35Q485.7 0.5 480.75 0.5 475.8 0.5 472.4-2.88 469-6.25 469-12.23 469-18.2 472.28-21.85 475.55-25.5 480.55-25.5 485.55-25.5 488.28-22.95 491-20.4 491-16.75L491-16.75Q491-8.65 481.7-8.65L481.7-8.65 478.25-8.65Q478.25-7.15 479.08-6.58 479.9-6 481.5-6L481.5-6Q485-6 488.15-7.6L488.15-7.6Q488.2-7.65 488.6-6.9L488.6-6.9Q489.8-4.75 489.8-3.28 489.8-1.8 488.85-1.35ZM482.6-15.8L482.6-15.8Q482.6-17.9 480.55-17.9L480.55-17.9Q479.6-17.9 478.93-17.32 478.25-16.75 478.25-15.65L478.25-15.65 478.25-14.1 480.95-14.1Q482.6-14.1 482.6-15.8ZM505.2-14L505.2-0.05Q505.2 0.3 500.65 0.3L500.65 0.3Q496.1 0.2 496.1-0.1L496.1-0.1 496.1-16.7 494.75-16.7Q493.95-16.7 493.48-17.68 493-18.65 493-20.1L493-20.1Q493-25.5 496.2-25.5L496.2-25.5Q498.45-25.5 499.95-24.13 501.45-22.75 501.45-21L501.45-21Q502.5-23.05 504.28-24.28 506.05-25.5 507.9-25.5L507.9-25.5Q510.8-25.5 511.4-24L511.4-24Q511.55-23.6 511.55-22.83 511.55-22.05 511.08-20.05 510.6-18.05 510.1-17.15 509.6-16.25 509.5-16.25 509.4-16.25 508.58-16.63 507.75-17 507.1-17L507.1-17Q505.2-17 505.2-14L505.2-14ZM523.3-35.15L522.3-10.5Q522.3-10.2 518.73-10.2 515.15-10.2 515.15-10.45L515.15-10.45 514.15-35.1Q514.15-35.5 518.73-35.5 523.3-35.5 523.3-35.15L523.3-35.15ZM514.05-0.15L514.05-7.5Q514.05-7.85 518.68-7.85 523.3-7.85 523.3-7.55L523.3-7.55 523.3-0.35Q523.3 0.15 518.68 0.15 514.05 0.15 514.05-0.15L514.05-0.15Z" opacity="1" transform="matrix(1,0,0,1,0,0)" fill="#ff4136" class="slogan-text-1" data-fill-palette-color="secondary" id="text-1"></path></svg></g></svg></g></svg></g></svg></g><g transform="matrix(1,0,0,1,66.22566913078357,0)"><svg viewBox="0 0 59.54866173843286 75.15239917357658" height="75.15239917357658" width="59.54866173843286"><g><svg xmlns="http://www.w3.org/2000/svg" xmlns:xlink="http://www.w3.org/1999/xlink" version="1.1" x="0" y="0" viewBox="-250.70001220703125 140.98709106445312 63.399993896484375 80.01290893554688" enable-background="new -269 131 100 100" xml:space="preserve" height="75.15239917357658" width="59.54866173843286" class="icon-icon-0" data-fill-palette-color="accent" id="icon-0"><path d="M-200.1 163.7l-1-0.8c-1.2-1-3.1-0.6-3.8 0.8-0.3 0.7-0.6 7.7-0.6 8.9 0 0.2 0 0.6 0 0.7 0 1-0.9 1.8-1.9 1.6-0.8-0.1-1.4-0.9-1.4-1.7-0.1-12-3.7-20.4-10.5-26.7-4.1-3.8-9-7.2-10.5-4.6-0.4 0.7 0.2 2.2 0.9 4.1 1.4 4.3-2.9 11.2-9 18.1-5.7 6.5-12.8 14.5-12.8 26.4 0 16 15.1 30.5 31.7 30.5 16.6 0 31.7-14.5 31.7-30.5C-187.3 180.4-192.1 170.4-200.1 163.7zM-219 215.2c-7.2 0-13.1-5.9-13.1-13.1 0-3.6 1.4-6.8 3.8-9.2l7.2-8.6c1.1-1.3 3.2-1.3 4.3 0l7.2 8.6c2.3 2.4 3.8 5.6 3.8 9.2C-205.9 209.3-211.8 215.2-219 215.2z" fill="#ff4136" data-fill-palette-color="accent"></path></svg></g></svg></g><g></g></svg></g></svg></g></svg></g></svg></g><defs></defs></svg><rect width="320" height="360" fill="none" stroke="none" visibility="hidden"></rect></g></svg></g></svg>